<?xml version="1.0" encoding="utf-8"?>
<!-- Generator: Adobe Illustrator 16.0.0, SVG Export Plug-In . SVG Version: 6.00 Build 0)  -->
<svg version="1.2" baseProfile="tiny" id="Calque_1"
	 xmlns="http://www.w3.org/2000/svg" xmlns:xlink="http://www.w3.org/1999/xlink" x="0px" y="0px" width="580px" height="97px"
	 viewBox="0 0 580 97" xml:space="preserve">
<g>
	<path fill="none" d="M572.44,3.556c-1.481,0-2.736,0.515-3.764,1.543c-1.028,1.024-1.548,2.29-1.548,3.791
		c0,1.517,0.52,2.787,1.548,3.821c1.027,1.034,2.282,1.552,3.764,1.552c1.462,0,2.709-0.518,3.74-1.559
		c1.032-1.03,1.552-2.3,1.552-3.814c0-1.501-0.52-2.767-1.545-3.791C575.155,4.071,573.902,3.556,572.44,3.556z M574.991,12.125
		h-1.204c-0.049-0.108-0.074-0.269-0.088-0.481c-0.009-0.207-0.013-0.427-0.013-0.651v-0.42c0-0.377-0.088-0.652-0.262-0.834
		c-0.175-0.174-0.47-0.269-0.867-0.269h-1.251v2.655h-1.171v-6.67h2.2c0.794,0,1.421,0.171,1.876,0.511
		c0.449,0.345,0.672,0.843,0.672,1.505c0,0.323-0.083,0.609-0.257,0.854c-0.175,0.247-0.428,0.455-0.757,0.61
		c0.349,0.139,0.602,0.348,0.757,0.626c0.148,0.279,0.225,0.613,0.225,1.004v0.441c0,0.211,0.013,0.405,0.032,0.578
		c0.019,0.168,0.057,0.307,0.107,0.418V12.125z"/>
	<path fill="none" d="M572.336,6.476h-1.029v1.973h1.196c0.336-0.003,0.627-0.087,0.864-0.253c0.237-0.165,0.352-0.394,0.352-0.684
		c0-0.384-0.102-0.653-0.305-0.807C573.209,6.55,572.852,6.476,572.336,6.476z"/>
	<path d="M572.44,2.518c-1.782,0-3.292,0.612-4.532,1.842c-1.241,1.231-1.864,2.737-1.864,4.53c0,1.798,0.623,3.316,1.864,4.553
		c1.24,1.235,2.75,1.852,4.532,1.852c1.759,0,3.262-0.617,4.51-1.852c1.244-1.237,1.87-2.755,1.87-4.553
		c0-1.793-0.62-3.299-1.868-4.53C575.719,3.13,574.205,2.518,572.44,2.518z M576.181,12.704c-1.031,1.041-2.278,1.559-3.74,1.559
		c-1.481,0-2.736-0.518-3.764-1.552c-1.028-1.034-1.548-2.304-1.548-3.821c0-1.501,0.52-2.767,1.548-3.791
		c1.027-1.028,2.282-1.543,3.764-1.543c1.462,0,2.715,0.515,3.747,1.543c1.025,1.024,1.545,2.29,1.545,3.791
		C577.732,10.404,577.213,11.674,576.181,12.704z"/>
	<path d="M574.852,11.006v-0.441c0-0.391-0.076-0.725-0.225-1.004c-0.155-0.278-0.408-0.487-0.757-0.626
		c0.329-0.155,0.582-0.363,0.757-0.61c0.174-0.245,0.257-0.531,0.257-0.854c0-0.662-0.223-1.16-0.672-1.505
		c-0.455-0.34-1.082-0.511-1.876-0.511h-2.2v6.67h1.171V9.47h1.251c0.397,0,0.692,0.095,0.867,0.269
		c0.174,0.182,0.262,0.457,0.262,0.834v0.42c0,0.224,0.004,0.444,0.013,0.651c0.014,0.212,0.039,0.373,0.088,0.481h1.204v-0.123
		c-0.051-0.111-0.089-0.25-0.107-0.418C574.864,11.411,574.852,11.217,574.852,11.006z M573.367,8.196
		c-0.237,0.166-0.528,0.25-0.864,0.253h-1.196V6.476h1.029c0.516,0,0.873,0.074,1.078,0.229c0.203,0.154,0.305,0.423,0.305,0.807
		C573.719,7.802,573.604,8.031,573.367,8.196z"/>
	<polygon points="66.618,28.722 67.957,24.534 19.948,9.175 19.948,29.477 7.623,25.493 6.275,29.677 19.948,34.104 19.948,83.933 
		24.353,83.933 24.353,57.127 66.662,70.244 67.959,66.04 24.353,52.52 24.353,35.523 66.637,49.191 67.992,45.007 24.353,30.896 
		24.353,15.208 	"/>
	<polygon points="546.424,28.61 547.76,24.417 499.729,9.175 499.729,29.477 487.407,25.493 486.05,29.677 499.729,34.104 
		499.729,83.933 504.134,83.933 504.134,57.073 546.436,70.244 547.747,66.04 504.134,52.472 504.134,35.523 546.411,49.191 
		547.772,45.007 504.134,30.896 504.134,15.208 	"/>
	<polygon points="122.552,9.953 115.003,53.979 157.661,29.022 153.413,83.765 157.8,84.105 162.706,20.982 120.938,45.399 
		126.885,10.699 	"/>
	<polygon points="264.297,71.142 268.434,69.645 246.64,9.276 214.965,82.265 218.997,84.012 246.266,21.192 	"/>
	<rect x="328.194" y="12.263" width="4.401" height="70.417"/>
	<polygon points="412.711,9.752 412.711,31.943 386.702,23.563 385.354,27.756 412.711,36.567 412.711,83.935 417.11,83.935 
		417.11,37.983 445.887,47.267 448.44,43.071 417.11,33.366 417.11,9.752 	"/>
</g>
</svg>
